<svg width="32" height="32" viewBox="0 0 32 32" fill="none" xmlns="http://www.w3.org/2000/svg">
<path d="M27.8925 10.0671C27.6072 9.64739 27.2206 9.2899 26.754 9.03052L17.6907 3.99173C16.6445 3.41015 15.3557 3.41015 14.3096 3.99173L5.24621 9.03052C4.2001 9.6121 3.55566 10.6869 3.55566 11.8501V21.9277C3.55566 23.0908 4.20009 24.1656 5.24621 24.7472L14.3096 29.786C15.3557 30.3676 16.6445 30.3676 17.6907 29.786L26.754 24.7472C27.8001 24.1656 28.4446 23.0908 28.4446 21.9277V16.8889M27.8925 10.0671C28.2468 10.5884 28.4446 11.2057 28.4446 11.8501V16.8889M27.8925 10.0671L17.08 16.5786M28.4446 16.8889L17.6907 23.0901" stroke="#409EFF" stroke-width="2" stroke-linecap="round" stroke-linejoin="round"/>
</svg>
